<svg width="14" height="23" viewBox="0 0 14 23" xmlns="http://www.w3.org/2000/svg"><title>Untitled</title><path d="M3.692.344c.19-.09.21-.037.944-.037h8.52c.279 0 .414-.024.55.097.137.12.087.322.062.368-.027.045-4.404 10.58-4.45 10.747-.047.167.039.417.306.42.269.002 1.776 0 1.911 0s.475.149.253.528c-.22.379-7.523 9.503-7.683 9.697-.16.194-.583.199-.583-.21 0-.41.645-9.482.645-9.68 0-.197-.137-.318-.371-.318L.69 11.95c-.171 0-.408-.058-.376-.376.032-.292 2.696-9.44 3.22-11.03a.33.33 0 0 1 .157-.201" fill="#D18316" fill-rule="evenodd"/></svg>