<svg width="157" height="37" viewBox="0 0 157 37" xmlns="http://www.w3.org/2000/svg"><title>logo</title><g fill="none" fill-rule="evenodd"><path d="M119.332 14.875s3.202-1.596 2.963 1.151c0 0 1.495-3.188 4.47-1.829 1.217.557 2.065 1.956 2.465 4.3.697 4.09 2.474 4.392 3.427 2.736 0 0-2.04-1.302-1.692-3.962.645-4.938 7.544-3.94 8.855-.607 0 0-2.377-5.883.513-10.928 0 0 2.4-1.715 3.015-.106-.82 2.846-1.116 11.76-1.116 11.76s.38 3.44 1.706 3.136c2.45-.561 2.95-6.455 2.224-8.463-.331-.794 3.3-1.992 6.04 2.829 4.797 8.438-1.151 11.983-4.697 10.292-2.96-1.41-.84-6.594 4.552-5.441l.066.708c-1.546-.733-4.775-.25-4.832 2.357-.042 1.93 3.374 2.197 3.878-1.59.448-3.367-2.567-6.8-2.873-6.662-.306.14-1.299 6.726-4.57 6.8-1.575.035-2.53-1.709-2.53-1.709-.162.897-2.647 3.886-7.465 2.065-1.313 1.226-3.091 1.46-5.176.486-2.085-.973-2.416-3.258-2.787-4.892-.354-1.564-2.352-1.507-2.953-.631-.458.667-.23 4.764-.393 4.796 0 0-2.151.497-2.76-.164-.541-.59-.315-4.878-.33-6.432zm19.91 3.274c-1.346-2.976-4.883-2.835-5.25-.534-.367 2.3 2 4.133 4.136 2.85 1.39-.834 1.114-2.316 1.114-2.316zM46.994 5.618c-1.74 1.128-1.828-1.106-10.822-1.548-3.209-.156-6.61.164-10.11.67-.202 3.035-1.538 20.24-3.034 20.989-1.582.79-3.867-.85-3.867-.85s.971-7.043 3.23-19.556C17.214 6.2 11.905 7.26 6.775 7.607-3.098 8.269.09.619 3.15 1.512c3.058.896.09 3.102 3.48 3.768 3.393.668 13.611-1.938 25.666-3.368C45.58.336 49.19 4.197 46.994 5.618" fill="#333C46"/><path d="M85.673 11.36c-2.064.267-1.986 9.175-5.94 9.68-2.904.37-1.505-5.293-1.505-5.293s-.694-1.58-2.745-1.318c-2.295.292-.698 6.128-3.339 6.316-.705-.29-1.001-7.878 1.152-15.12 0 0-1.474-2.488-3.39-.72-2.378 2.193-.605 10.933-.605 10.933-4.96-5.718-10.844.95-7.97 4.755.538.71.738.881.738.881-.96 1.618-3.097 1.032-3.285-2.763-.119-2.377-.78-4.282-1.919-4.985-2.788-1.72-5.342 2.507-5.342 2.507.239-2.748-2.757-1.152-2.757-1.152s-1.473 5.889-4.545 6.563c-2.636.578-3.038-1.352-3.038-1.352s3.472-1.174 4.54-3.48c1.723-3.724-3.466-5.836-5.963-3.125-1.96 2.127-2.258 5.012-1.835 6.402 0 0-.32 1.464-1.498 1.662-1.18.197-2.678-.943-.445-6.128 2.233-5.183-1.949-4.28-3.6-2.754-1.649 1.527-2.005-1.77-3.693-.284-1.465 1.292-.074 4.696-1.026 8.03 0 0 .953 1.409 1.759.052.633-1.068.62-6.147.62-6.147.935.697 3.337-.153 3.419-.18-1.65 3.559-2.132 8.695 1.815 8.39 2.572-.198 3.036-1.481 3.036-1.481s1.401 1.937 4.494 1.777c2.093-.108 4.712-1.338 5.95-4.265.038.944.132 2.528.339 2.753.607.66 2.555.164 2.555.164.163-.033 0-4.09.392-4.798.896-1.611 3.291-1.79 3.451-.194.17 1.667.206 4.745 2.29 5.717 2.038.952 3.985.753 5.288-.403.497.185 1.152.337 1.98.365 3.57.116 4.55-2.127 4.55-2.127s.666 1.891 2.114 1.82c2.23-.11 2.923-3.152 2.923-3.152 0 1.887 1.414 3.575 4.86 3.468 2.34-.071 3.85-2.983 3.85-2.983-.581 2.473-1.538 15.748-.688 16.545.853.796 2.4.703 2.819-.148 0 0 .08-9.042.749-15.35.669-6.31 1.947-7.757 1.947-7.757s-.438-1.584-2.502-1.32zm-41.9 2.714c1.7.322.552 4.374-2.795 5.008-1.088-1.765 1.172-5.315 2.794-5.008zm20.096 5.192c-1.272-2.46 2.704-5.639 5.263-1.934l.016 1.287c-.417 1.889-4.013 3.09-5.28.647zm27.583-9.45c-.11 6.382-1.85 12.054-1.216 13.118.254.43 3.417.295 3.407-.127-.035-1.331.17-4.205.75-9.012 1.124.39 1.895 8.01 4.856 7.95 2.961-.059 6.382-7.785 7.28-9.925.909-.015-1.186 8.122 2.162 14.49 3.347 6.37 10.107 6.069 10.324 5.049.217-1.022-6.763.49-8.253-10.237-1.37-9.868 2.26-19.294 2.26-19.294s-2.907-1.572-4.625-.516c-1.719 1.056-3.253 12.963-8.482 18.01-.48.14-2.95-5.138-3.296-9.692-.137-1.799-5.167.186-5.167.186" fill="#333C46"/><path d="M114.2 14.547s2.66-.845 2.778 1.474c.068 1.326.062 4.848-.303 5.362-.258.362-2.008.355-2.364.219-.554-.212-.25-4.97-.112-7.055" fill="#333C46"/><path d="M115.888 2.316c.088-.042.098-.017.44-.017h3.974c.13 0 .192-.011.256.045.063.056.04.15.028.172a714.86 714.86 0 0 0-2.074 5.011c-.023.078.018.194.142.195.126.002.828 0 .891 0 .063 0 .222.07.118.247-.103.177-3.508 4.431-3.582 4.522-.075.09-.272.093-.272-.099 0-.19.3-4.42.3-4.513 0-.092-.063-.148-.173-.148l-1.447-.002c-.08 0-.19-.027-.176-.176.015-.136 1.257-4.402 1.502-5.143a.154.154 0 0 1 .073-.094" fill="#D18316"/><path d="M155.178 9.506c.833 0 1.48.652 1.48 1.463 0 .83-.647 1.473-1.489 1.473-.832 0-1.497-.643-1.497-1.473 0-.811.665-1.463 1.497-1.463h.01zm-.017.295c-.638 0-1.117.526-1.117 1.168 0 .652.479 1.17 1.134 1.17.638.008 1.107-.518 1.107-1.17 0-.642-.469-1.168-1.116-1.168h-.008zm-.222 1.927h-.337v-1.455a2.88 2.88 0 0 1 .559-.053c.274 0 .398.044.504.116a.4.4 0 0 1 .142.312c0 .17-.124.295-.301.348v.018c.142.045.221.16.266.357.044.223.07.312.106.357h-.363c-.045-.054-.071-.179-.115-.348-.027-.16-.116-.232-.302-.232h-.159v.58zm.009-.821h.16c.185 0 .336-.063.336-.214 0-.134-.097-.223-.31-.223a.795.795 0 0 0-.186.018v.419z" fill="#333C46"/></g></svg>